<svg width="100" height="100" viewBox="0 0 100 100" fill="none" xmlns="http://www.w3.org/2000/svg">
<g filter="url(#filter0_d_4_196)">
<rect x="10" y="6" width="80" height="80" rx="20" fill="white" shape-rendering="crispEdges"/>
<path fill-rule="evenodd" clip-rule="evenodd" d="M50 22C36.1916 22 25 33.1916 25 47C25 58.0437 32.1611 67.4156 42.097 70.7242C43.3477 70.9498 43.7989 70.1803 43.7989 69.5185C43.7989 68.9245 43.7788 67.3504 43.7713 65.2675C36.8157 66.7764 35.3469 61.9138 35.3469 61.9138C34.214 59.0263 32.5722 58.2568 32.5722 58.2568C30.3038 56.7052 32.7451 56.7403 32.7451 56.7403C35.2567 56.9158 36.5726 59.317 36.5726 59.317C38.8034 63.137 42.4278 62.0341 43.8465 61.3949C44.0746 59.7782 44.7263 58.6754 45.4381 58.0512C39.8887 57.4221 34.0535 55.2765 34.0535 45.6941C34.0535 42.9695 35.0286 40.7337 36.6202 38.9892C36.3671 38.355 35.5023 35.8109 36.8684 32.372C36.8684 32.372 38.9663 31.6977 43.7412 34.9311C45.7805 34.3764 47.8841 34.0932 49.9975 34.0889C52.1109 34.0924 54.2146 34.3755 56.2538 34.9311C61.0312 31.6952 63.1266 32.372 63.1266 32.372C64.4927 35.8109 63.6355 38.355 63.3748 38.9892C64.9789 40.7337 65.9414 42.967 65.9414 45.6941C65.9414 55.3016 60.1013 57.4121 54.5318 58.0312C55.4216 58.8032 56.2237 60.3272 56.2237 62.6582C56.2237 66.0019 56.1936 68.6989 56.1936 69.5185C56.1936 70.1878 56.6398 70.9648 57.9156 70.7192C67.8464 67.4056 75 58.0412 75 47C75 33.1916 63.8084 22 50 22Z" fill="#212121"/>
</g>
<defs>
<filter id="filter0_d_4_196" x="0" y="0" width="100" height="100" filterUnits="userSpaceOnUse" color-interpolation-filters="sRGB">
<feFlood flood-opacity="0" result="BackgroundImageFix"/>
<feColorMatrix in="SourceAlpha" type="matrix" values="0 0 0 0 0 0 0 0 0 0 0 0 0 0 0 0 0 0 127 0" result="hardAlpha"/>
<feOffset dy="4"/>
<feGaussianBlur stdDeviation="5"/>
<feComposite in2="hardAlpha" operator="out"/>
<feColorMatrix type="matrix" values="0 0 0 0 0 0 0 0 0 0 0 0 0 0 0 0 0 0 0.08 0"/>
<feBlend mode="normal" in2="BackgroundImageFix" result="effect1_dropShadow_4_196"/>
<feBlend mode="normal" in="SourceGraphic" in2="effect1_dropShadow_4_196" result="shape"/>
</filter>
</defs>
</svg>
