<svg width="184" height="183" viewBox="0 0 184 183" fill="none" xmlns="http://www.w3.org/2000/svg">
<rect width="184" height="183" rx="32" fill="url(#paint0_radial_4_244)"/>
<rect width="184" height="183" rx="32" fill="url(#paint1_radial_4_244)"/>
<path d="M121.823 79.1833C121.79 76.6587 121.317 74.1592 120.427 71.7967C119.654 69.8038 118.475 67.994 116.964 66.4828C115.453 64.9715 113.643 63.7922 111.65 63.02C109.318 62.1445 106.854 61.6711 104.363 61.62C101.157 61.4767 100.14 61.4367 92 61.4367C83.86 61.4367 82.8167 61.4367 79.6333 61.62C77.1439 61.6715 74.6812 62.1449 72.35 63.02C70.3569 63.7916 68.5467 64.9708 67.0354 66.4821C65.5241 67.9934 64.345 69.8035 63.5733 71.7967C62.6961 74.1271 62.2237 76.5904 62.1767 79.08C62.0333 82.29 61.99 83.3067 61.99 91.4467C61.99 99.5867 61.99 100.627 62.1767 103.813C62.2267 106.307 62.6967 108.767 63.5733 111.103C64.3462 113.096 65.5263 114.905 67.0381 116.416C68.5499 117.927 70.3602 119.105 72.3533 119.877C74.6781 120.787 77.1412 121.295 79.6367 121.377C82.8467 121.52 83.8633 121.563 92.0033 121.563C100.143 121.563 101.187 121.563 104.37 121.377C106.861 121.328 109.325 120.855 111.657 119.98C113.649 119.207 115.458 118.027 116.969 116.516C118.481 115.005 119.66 113.196 120.433 111.203C121.31 108.87 121.78 106.41 121.83 103.913C121.973 100.707 122.017 99.69 122.017 91.5467C122.01 83.4067 122.01 82.3733 121.823 79.1833ZM91.98 106.84C83.4667 106.84 76.57 99.9433 76.57 91.43C76.57 82.9167 83.4667 76.02 91.98 76.02C96.067 76.02 99.9866 77.6435 102.877 80.5335C105.766 83.4234 107.39 87.343 107.39 91.43C107.39 95.517 105.766 99.4366 102.877 102.327C99.9866 105.216 96.067 106.84 91.98 106.84ZM108.003 79.0433C107.531 79.0438 107.064 78.9511 106.628 78.7707C106.192 78.5903 105.795 78.3256 105.461 77.9918C105.128 77.6581 104.863 77.2618 104.683 76.8256C104.502 76.3895 104.41 75.922 104.41 75.45C104.41 74.9783 104.503 74.5113 104.683 74.0755C104.864 73.6398 105.128 73.2438 105.462 72.9103C105.795 72.5768 106.191 72.3122 106.627 72.1317C107.063 71.9512 107.53 71.8583 108.002 71.8583C108.473 71.8583 108.94 71.9512 109.376 72.1317C109.812 72.3122 110.208 72.5768 110.541 72.9103C110.875 73.2438 111.139 73.6398 111.32 74.0755C111.5 74.5113 111.593 74.9783 111.593 75.45C111.593 77.4367 109.987 79.0433 108.003 79.0433Z" fill="white"/>
<path d="M91.98 101.44C97.5084 101.44 101.99 96.9584 101.99 91.43C101.99 85.9016 97.5084 81.42 91.98 81.42C86.4516 81.42 81.97 85.9016 81.97 91.43C81.97 96.9584 86.4516 101.44 91.98 101.44Z" fill="white"/>
<defs>
<radialGradient id="paint0_radial_4_244" cx="0" cy="0" r="1" gradientUnits="userSpaceOnUse" gradientTransform="translate(155.48 207.705) rotate(-115.898) scale(249.813 372.826)">
<stop offset="0.24392" stop-color="#FF1B90"/>
<stop offset="0.436673" stop-color="#F80261"/>
<stop offset="0.688476" stop-color="#ED00C0"/>
<stop offset="0.776787" stop-color="#C500E9"/>
<stop offset="0.893155" stop-color="#7017FF"/>
</radialGradient>
<radialGradient id="paint1_radial_4_244" cx="0" cy="0" r="1" gradientUnits="userSpaceOnUse" gradientTransform="translate(37 222.783) rotate(-57.8954) scale(146.764 153.02)">
<stop stop-color="#FFD600"/>
<stop offset="0.484375" stop-color="#FF6930"/>
<stop offset="0.734375" stop-color="#FE3B36"/>
<stop offset="1" stop-color="#FE3B36" stop-opacity="0"/>
</radialGradient>
</defs>
</svg>
